<svg aria-hidden="true" style="position: absolute; width: 0; height: 0; overflow: hidden;" version="1.1" xmlns="http://www.w3.org/2000/svg" xmlns:xlink="http://www.w3.org/1999/xlink">
<defs>
<symbol id="icon-th-list-outline" viewBox="0 0 24 24">
<path d="M19 18c0.55 0 1 0.45 1 1s-0.45 1-1 1h-7c-0.55 0-1-0.45-1-1s0.45-1 1-1h7M19 16h-7c-1.654 0-3 1.346-3 3s1.346 3 3 3h7c1.654 0 3-1.346 3-3s-1.346-3-3-3z"></path>
<path d="M19 11c0.55 0 1 0.45 1 1s-0.45 1-1 1h-7c-0.55 0-1-0.45-1-1s0.45-1 1-1h7M19 9h-7c-1.654 0-3 1.346-3 3s1.346 3 3 3h7c1.654 0 3-1.346 3-3s-1.346-3-3-3z"></path>
<path d="M19 4c0.55 0 1 0.45 1 1s-0.45 1-1 1h-7c-0.55 0-1-0.45-1-1s0.45-1 1-1h7M19 2h-7c-1.654 0-3 1.346-3 3s1.346 3 3 3h7c1.654 0 3-1.346 3-3s-1.346-3-3-3z"></path>
<path d="M6 16h-2c-1.104 0-2 0.896-2 2v2c0 1.104 0.896 2 2 2h2c1.104 0 2-0.896 2-2v-2c0-1.104-0.896-2-2-2zM6 20h-2v-2h2v2z"></path>
<path d="M6 9h-2c-1.104 0-2 0.896-2 2v2c0 1.104 0.896 2 2 2h2c1.104 0 2-0.896 2-2v-2c0-1.104-0.896-2-2-2zM6 13h-2v-2h2v2z"></path>
<path d="M6 2h-2c-1.104 0-2 0.896-2 2v2c0 1.104 0.896 2 2 2h2c1.104 0 2-0.896 2-2v-2c0-1.104-0.896-2-2-2zM6 6h-2v-2h2v2z"></path>
</symbol>
<symbol id="icon-device-tablet" viewBox="0 0 24 24">
<path d="M17 4h-9c-0.55 0-1 0.45-1 1v12c0 0.55 0.45 1 1 1h3.5c0 0.553 0.448 1 1 1s1-0.447 1-1h3.5c0.55 0 1-0.45 1-1v-12c0-0.55-0.45-1-1-1zM17 17h-9v-12h9v12z"></path>
<path d="M18 1h-11c-1.654 0-3 1.346-3 3v15c0 1.654 1.346 3 3 3h11c1.654 0 3-1.346 3-3v-15c0-1.654-1.346-3-3-3zM19 19c0 0.551-0.449 1-1 1h-11c-0.551 0-1-0.449-1-1v-15c0-0.551 0.449-1 1-1h11c0.551 0 1 0.449 1 1v15z"></path>
</symbol>
<symbol id="icon-search" viewBox="0 0 26 28">
<path d="M18 13c0-3.859-3.141-7-7-7s-7 3.141-7 7 3.141 7 7 7 7-3.141 7-7zM26 26c0 1.094-0.906 2-2 2-0.531 0-1.047-0.219-1.406-0.594l-5.359-5.344c-1.828 1.266-4.016 1.937-6.234 1.937-6.078 0-11-4.922-11-11s4.922-11 11-11 11 4.922 11 11c0 2.219-0.672 4.406-1.937 6.234l5.359 5.359c0.359 0.359 0.578 0.875 0.578 1.406z"></path>
</symbol>
<symbol id="icon-chevron-left" viewBox="0 0 21 28">
<path d="M18.297 4.703l-8.297 8.297 8.297 8.297c0.391 0.391 0.391 1.016 0 1.406l-2.594 2.594c-0.391 0.391-1.016 0.391-1.406 0l-11.594-11.594c-0.391-0.391-0.391-1.016 0-1.406l11.594-11.594c0.391-0.391 1.016-0.391 1.406 0l2.594 2.594c0.391 0.391 0.391 1.016 0 1.406z"></path>
</symbol>
<symbol id="icon-chevron-right" viewBox="0 0 19 28">
<path d="M17.297 13.703l-11.594 11.594c-0.391 0.391-1.016 0.391-1.406 0l-2.594-2.594c-0.391-0.391-0.391-1.016 0-1.406l8.297-8.297-8.297-8.297c-0.391-0.391-0.391-1.016 0-1.406l2.594-2.594c0.391-0.391 1.016-0.391 1.406 0l11.594 11.594c0.391 0.391 0.391 1.016 0 1.406z"></path>
</symbol>
<symbol id="icon-expand" viewBox="0 0 24 28">
<path d="M11.797 16.5c0 0.125-0.063 0.266-0.156 0.359l-5.187 5.187 2.25 2.25c0.187 0.187 0.297 0.438 0.297 0.703 0 0.547-0.453 1-1 1h-7c-0.547 0-1-0.453-1-1v-7c0-0.547 0.453-1 1-1 0.266 0 0.516 0.109 0.703 0.297l2.25 2.25 5.187-5.187c0.094-0.094 0.234-0.156 0.359-0.156s0.266 0.063 0.359 0.156l1.781 1.781c0.094 0.094 0.156 0.234 0.156 0.359zM24 3v7c0 0.547-0.453 1-1 1-0.266 0-0.516-0.109-0.703-0.297l-2.25-2.25-5.187 5.187c-0.094 0.094-0.234 0.156-0.359 0.156s-0.266-0.063-0.359-0.156l-1.781-1.781c-0.094-0.094-0.156-0.234-0.156-0.359s0.063-0.266 0.156-0.359l5.187-5.187-2.25-2.25c-0.187-0.187-0.297-0.438-0.297-0.703 0-0.547 0.453-1 1-1h7c0.547 0 1 0.453 1 1z"></path>
</symbol>
<symbol id="icon-caret-square-o-right" viewBox="0 0 24 28">
<path d="M17 14c0 0.328-0.156 0.625-0.422 0.812l-7 5c-0.297 0.219-0.703 0.25-1.031 0.078-0.344-0.172-0.547-0.516-0.547-0.891v-10c0-0.375 0.203-0.719 0.547-0.891 0.328-0.172 0.734-0.141 1.031 0.078l7 5c0.266 0.187 0.422 0.484 0.422 0.812zM20 21.5v-15c0-0.281-0.219-0.5-0.5-0.5h-15c-0.281 0-0.5 0.219-0.5 0.5v15c0 0.281 0.219 0.5 0.5 0.5h15c0.281 0 0.5-0.219 0.5-0.5zM24 6.5v15c0 2.484-2.016 4.5-4.5 4.5h-15c-2.484 0-4.5-2.016-4.5-4.5v-15c0-2.484 2.016-4.5 4.5-4.5h15c2.484 0 4.5 2.016 4.5 4.5z"></path>
</symbol>
<symbol id="icon-user-circle-o" viewBox="0 0 28 28">
<path d="M14 0c7.734 0 14 6.266 14 14 0 7.688-6.234 14-14 14-7.75 0-14-6.297-14-14 0-7.734 6.266-14 14-14zM23.672 21.109c1.453-2 2.328-4.453 2.328-7.109 0-6.609-5.391-12-12-12s-12 5.391-12 12c0 2.656 0.875 5.109 2.328 7.109 0.562-2.797 1.922-5.109 4.781-5.109 1.266 1.234 2.984 2 4.891 2s3.625-0.766 4.891-2c2.859 0 4.219 2.312 4.781 5.109zM20 11c0-3.313-2.688-6-6-6s-6 2.688-6 6 2.688 6 6 6 6-2.688 6-6z"></path>
</symbol>
<symbol id="icon-home3" viewBox="0 0 32 32">
<path d="M32 19l-6-6v-9h-4v5l-6-6-16 16v1h4v10h10v-6h4v6h10v-10h4z"></path>
</symbol>
<symbol id="icon-feed" viewBox="0 0 32 32">
<path d="M12 16c0-2.209 1.791-4 4-4s4 1.791 4 4c0 2.209-1.791 4-4 4s-4-1.791-4-4zM20.761 7.204c3.12 1.692 5.239 4.997 5.239 8.796s-2.119 7.104-5.239 8.796c1.377-2.191 2.239-5.321 2.239-8.796s-0.862-6.605-2.239-8.796zM9 16c0 3.475 0.862 6.605 2.239 8.796-3.12-1.692-5.239-4.997-5.239-8.796s2.119-7.104 5.239-8.796c-1.377 2.191-2.239 5.321-2.239 8.796zM3 16c0 5.372 1.7 10.193 4.395 13.491-4.447-2.842-7.395-7.822-7.395-13.491s2.948-10.649 7.395-13.491c-2.695 3.298-4.395 8.119-4.395 13.491zM24.605 2.509c4.447 2.842 7.395 7.822 7.395 13.491s-2.948 10.649-7.395 13.491c2.695-3.298 4.395-8.119 4.395-13.491s-1.7-10.193-4.395-13.491z"></path>
</symbol>
<symbol id="icon-drawer" viewBox="0 0 32 32">
<path d="M31.781 20.375l-8-10c-0.19-0.237-0.477-0.375-0.781-0.375h-14c-0.304 0-0.591 0.138-0.781 0.375l-8 10c-0.142 0.177-0.219 0.398-0.219 0.625v9c0 1.105 0.895 2 2 2h28c1.105 0 2-0.895 2-2v-9c0-0.227-0.077-0.447-0.219-0.625zM30 22h-7l-4 4h-6l-4-4h-7v-0.649l7.481-9.351h13.039l7.481 9.351v0.649z"></path>
<path d="M23 16h-14c-0.552 0-1-0.448-1-1s0.448-1 1-1h14c0.552 0 1 0.448 1 1s-0.448 1-1 1z"></path>
<path d="M25 20h-18c-0.552 0-1-0.448-1-1s0.448-1 1-1h18c0.552 0 1 0.448 1 1s-0.448 1-1 1z"></path>
</symbol>
<symbol id="icon-play2" viewBox="0 0 32 32">
<path d="M16 0c-8.837 0-16 7.163-16 16s7.163 16 16 16 16-7.163 16-16-7.163-16-16-16zM16 29c-7.18 0-13-5.82-13-13s5.82-13 13-13 13 5.82 13 13-5.82 13-13 13zM12 9l12 7-12 7z"></path>
</symbol>
<symbol id="icon-previous2" viewBox="0 0 32 32">
<path d="M8 28v-24h4v11l10-10v22l-10-10v11z"></path>
</symbol>
<symbol id="icon-next2" viewBox="0 0 32 32">
<path d="M24 4v24h-4v-11l-10 10v-22l10 10v-11z"></path>
</symbol>
<symbol id="icon-volume-medium" viewBox="0 0 32 32">
<path d="M22.485 25.985c-0.384 0-0.768-0.146-1.061-0.439-0.586-0.586-0.586-1.535 0-2.121 4.094-4.094 4.094-10.755 0-14.849-0.586-0.586-0.586-1.536 0-2.121s1.536-0.586 2.121 0c2.55 2.55 3.954 5.94 3.954 9.546s-1.404 6.996-3.954 9.546c-0.293 0.293-0.677 0.439-1.061 0.439v0zM17.157 23.157c-0.384 0-0.768-0.146-1.061-0.439-0.586-0.586-0.586-1.535 0-2.121 2.534-2.534 2.534-6.658 0-9.192-0.586-0.586-0.586-1.536 0-2.121s1.535-0.586 2.121 0c3.704 3.704 3.704 9.731 0 13.435-0.293 0.293-0.677 0.439-1.061 0.439z"></path>
<path d="M13 30c-0.26 0-0.516-0.102-0.707-0.293l-7.707-7.707h-3.586c-0.552 0-1-0.448-1-1v-10c0-0.552 0.448-1 1-1h3.586l7.707-7.707c0.286-0.286 0.716-0.372 1.090-0.217s0.617 0.519 0.617 0.924v26c0 0.404-0.244 0.769-0.617 0.924-0.124 0.051-0.254 0.076-0.383 0.076z"></path>
</symbol>
<symbol id="icon-loop2" viewBox="0 0 32 32">
<path d="M27.802 5.197c-2.925-3.194-7.13-5.197-11.803-5.197-8.837 0-16 7.163-16 16h3c0-7.18 5.82-13 13-13 3.844 0 7.298 1.669 9.678 4.322l-4.678 4.678h11v-11l-4.198 4.197z"></path>
<path d="M29 16c0 7.18-5.82 13-13 13-3.844 0-7.298-1.669-9.678-4.322l4.678-4.678h-11v11l4.197-4.197c2.925 3.194 7.13 5.197 11.803 5.197 8.837 0 16-7.163 16-16h-3z"></path>
</symbol>
<symbol id="icon-shuffle" viewBox="0 0 32 32">
<path d="M24 22h-3.172l-5-5 5-5h3.172v5l7-7-7-7v5h-4c-0.53 0-1.039 0.211-1.414 0.586l-5.586 5.586-5.586-5.586c-0.375-0.375-0.884-0.586-1.414-0.586h-6v4h5.172l5 5-5 5h-5.172v4h6c0.53 0 1.039-0.211 1.414-0.586l5.586-5.586 5.586 5.586c0.375 0.375 0.884 0.586 1.414 0.586h4v5l7-7-7-7v5z"></path>
</symbol>
</defs>
</svg>
